<?xml version="1.0" standalone="no"?>
<!DOCTYPE svg PUBLIC "-//W3C//DTD SVG 1.0//EN" "http://www.w3.org/TR/2001/REC-SVG-20010904/DTD/svg10.dtd">
<svg xmlns="http://www.w3.org/2000/svg" xmlns:xlink="http://www.w3.org/1999/xlink" id="body_1" width="199" height="152">

<g transform="matrix(0.4983607 0 0 0.4983607 0.3262279 -0)">
	<g transform="matrix(1 0 0 1 -1 -1)">
		<g transform="matrix(1 0 0 1 0 179.31)">
            <path d="M30.62 1.655L47.724 48.274998L35.31 48.274998L33.103 40.828L16 40.828L13.793 48.276L1.38 48.276L18.759998 1.656002L30.62 1.656002L30.62 1.655zM24.276001 12.965C 23.724 15.448 22.896002 17.931 22.345001 20.138C 21.241001 23.724 19.586 29.241001 18.483002 32.552002L18.483002 32.552002L30.345001 32.552002L24.275002 12.9660015zM60.414 17.379C 62.621002 15.448999 65.104004 14.069 70.344 13.517L70.344 13.517L70.344 22.621L67.034004 23.172C 62.069004 24 60.690002 24.828001 60.690002 29.242L60.690002 29.242L60.690002 48.828003L50.483 48.828003L50.483 13.793L60.413002 13.793L60.413002 17.379zM73.93 1.655L83.861 1.655L83.861 9.655L73.93 9.655L73.93 1.6549997zM73.93 13.792999L83.861 13.792999L83.861 48.552L73.93 48.552L73.93 13.793z" stroke="none" fill="#000000" fill-rule="nonzero" />
            <path d="M90.206894 13.793103L119.72414 13.793103L119.72414 21.51724L101.24138 40.275864L119.72414 40.275864L119.72414 48.275864L88.27586 48.275864L88.27586 40.551723L107.034485 21.51724L90.48276 21.51724L90.48276 13.793103L90.206894 13.793103z" stroke="none" fill="#000000" fill-rule="nonzero" />
            <path d="M158.897 31.172C 158.897 40 153.931 49.379 140.414 49.379C 130.759 49.379 121.931 43.862 121.931 31.172C 121.931 20.69 128.551 12.1380005 141.793 12.9660015C 155.586 13.517001 158.897 24.828003 158.897 31.172zM133.517 24.276001C 132.137 26.206001 131.862 28.69 131.862 30.896C 131.862 36.414 134.621 41.103 140.138 41.103C 145.655 41.103 148.414 36.690002 148.414 31.173C 148.414 27.310001 147.586 24.276001 145.655 22.621C 143.448 20.69 141.241 20.69 139.586 20.69C 136.828 21.241001 134.896 22.069 133.517 24.276001zM172.414 17.103C 173.517 16 174.069 15.173 175.724 14.345001C 177.379 13.793001 179.586 12.965001 182.069 12.965001C 184 12.965001 186.483 13.241001 188.138 14.345001C 191.724 16.275002 192.828 19.310001 192.828 24.828001L192.828 24.828001L192.828 48.552002L182.62 48.552002L182.62 28.966C 182.62 25.931 182.62 24.828 182.068 23.723999C 181.23999 21.793999 179.58499 20.966 177.37799 20.966C 172.137 20.966 172.137 25.379 172.137 29.516998L172.137 29.516998L172.137 48.276L161.93 48.276L161.93 14.069L172.137 14.069L172.413 17.103zM198.069 23.724C 198.345 21.241001 198.621 18.483002 201.655 16C 204.965 13.517 208.828 12.966 212.965 12.966C 217.103 12.966 227.586 14.068999 227.586 22.896L227.586 22.896L227.586 43.034C 227.586 46.621002 227.862 47.172 228.69 48.552002L228.69 48.552002L218.759 48.552002L218.759 45.242C 216.276 47.172 213.241 49.379 208.276 49.379C 200.276 49.379 196.966 43.586002 196.966 38.897003C 196.966 33.379 201.379 30.069004 204.138 28.966003C 206.897 27.862003 213.518 26.483004 217.655 25.656004L217.655 25.656004L217.655 23.724005C 217.655 22.069004 217.379 19.586004 213.793 19.586004C 209.379 19.586004 208.828 22.345005 208.552 23.724005L208.552 23.724005L198.069 23.724005zM210.759 34.207C 209.103 34.759 206.345 35.862 206.345 38.621002C 206.345 40.276 207.725 42.207 210.207 42.207C 211.587 42.207 212.69 41.655003 213.793 41.103C 217.103 38.897 217.379 35.863 217.379 32.276L217.379 32.276L210.759 34.206zM249.931 34.483C 251.034 35.863003 252.138 36.966003 254.345 38.069C 257.379 39.724 260.69 40.276 263.448 40.276C 268.138 40.276 272 38.069 272 34.759003C 272 31.172003 267.31 30.345003 263.724 30.069002C 261.241 29.793003 258.483 29.517002 256 28.966002C 253.241 28.414001 243.31 26.206001 243.31 16.276001C 243.31 4.138 254.07 0.552 262.07 0.552C 272.829 0.552 278.622 5.793 282.76 9.379L282.76 9.379L274.208 15.448999C 272.828 14.068999 271.449 12.688999 269.518 11.5859995C 267.863 10.759 264.828 9.655999 261.794 9.655999C 257.104 9.655999 254.89801 12.414 254.89801 14.620999C 254.89801 18.206999 258.76 18.758999 260.967 19.034C 265.932 19.586 272.553 20.966 275.311 21.794C 280.553 23.724 283.311 27.862 283.311 33.379C 283.311 36.689003 281.932 40.552002 279.725 43.31C 275.587 48.276 268.691 49.655003 262.07 49.655003C 248.82901 49.655003 243.587 43.586002 240.82901 40.275L240.82901 40.275L249.932 34.483zM288.828 3.8630009L299.034 3.8630009L299.034 14.62L305.655 14.62L305.655 20.965L299.035 20.965L299.035 36.413002C 299.035 38.620003 299.035 40.275 301.793 40.275L301.793 40.275L305.379 40.275L305.379 48.275C 303.172 48.551003 301.793 48.827 300.138 48.827C 296.552 48.827 292.69 48.551 290.483 45.517C 289.103 43.585 289.103 41.101997 289.103 37.792L289.103 37.792L289.103 21.241L284.138 21.241L284.138 14.896999L289.103 14.896999L289.103 3.862L288.828 3.862zM308.69 23.724C 308.966 21.241001 309.241 18.483002 312.276 16C 315.586 13.517 319.448 12.966 323.586 12.966C 327.724 12.966 338.206 14.068999 338.206 22.896L338.206 22.896L338.206 43.034C 338.206 46.621002 338.483 47.172 339.31 48.552002L339.31 48.552002L329.38 48.552002L329.38 45.242C 326.897 47.172 323.862 49.379 318.897 49.379C 310.897 49.379 307.587 43.586002 307.587 38.897003C 307.587 33.379 312 30.069004 314.759 28.966003C 317.517 27.862003 324.138 26.483004 328.276 25.656004L328.276 25.656004L328.276 23.724005C 328.276 22.069004 328 19.586004 324.414 19.586004C 320 19.586004 319.448 22.345005 319.172 23.724005L319.172 23.724005L308.69 23.724005zM321.655 34.207C 320 34.759 317.241 35.862 317.241 38.621002C 317.241 40.276 318.621 42.207 321.103 42.207C 322.483 42.207 323.586 41.655003 324.69 41.103C 328 38.897 328.276 35.863 328.276 32.276L328.276 32.276L321.656 34.206zM345.103 3.8620014L355.31 3.8620014L355.31 14.621001L361.931 14.621001L361.931 20.966002L355.311 20.966002L355.311 36.414C 355.311 38.621002 355.311 40.276 358.069 40.276L358.069 40.276L361.655 40.276L361.655 48.276C 359.448 48.552002 358.069 48.828 356.414 48.828C 352.828 48.828 348.966 48.552 346.759 45.517998C 345.379 43.586 345.379 41.102997 345.379 37.793L345.379 37.793L345.379 21.241L340.414 21.241L340.414 14.896999L345.379 14.896999L345.379 3.862L345.103 3.862zM398.069 39.724C 396.966 41.378998 395.586 43.309998 393.931 44.966C 390.897 47.724 386.483 49.931 380.966 49.931C 370.759 49.931 363.586 43.311 363.586 32C 363.586 23.723999 367.724 12.966 381.241 12.966C 383.172 12.966 389.241 13.240999 393.655 17.931C 398.069 22.897 398.345 29.517 398.621 33.378998L398.621 33.378998L373.793 33.378998C 373.793 37.793 376.276 41.931 381.793 41.931C 387.31 41.931 389.241 38.345 390.621 35.862L390.621 35.862L398.069 39.724zM387.862 26.76C 387.586 25.380001 387.31 23.45 385.931 21.794C 384.551 20.414001 382.621 19.864 380.966 19.864C 378.483 19.864 376.828 20.967001 375.724 22.07C 374.344 23.725 374.069 25.104 373.794 26.76L373.794 26.76L387.862 26.76z" stroke="none" fill="#000000" fill-rule="nonzero" />
			<g>
                <path d="M41.103 67.862L41.103 94.07C 41.103 98.484 41.103 103.173 38.345 107.311C 33.379 115.311 22.897001 115.863 20.965002 115.863C 17.379002 115.863 13.241002 115.034996 10.207002 113.38C 1.1030016 108.689995 1.1030016 100.41499 1.3790016 94.07L1.3790016 94.07L1.3790016 67.862L13.241002 67.862L13.241002 97.103C 13.241002 99.586 13.241002 101.517 14.069002 102.896996C 15.449002 105.379 18.759003 106.20699 21.517002 106.20699C 29.517002 106.20699 29.517002 100.689995 29.517002 97.103L29.517002 97.103L29.517002 68.138L41.103004 67.862L41.103 67.862zM56.552 83.31C 57.655 82.207 58.206997 81.38 59.862 80.551994C 61.517 79.99999 63.724 79.172 66.207 79.172C 68.137 79.172 70.621 79.448 72.276 80.551994C 75.862 82.481995 76.966 85.517 76.966 91.034L76.966 91.034L76.966 114.758995L66.759 114.758995L66.759 95.172C 66.759 92.138 66.759 91.034 66.207 89.931C 65.379 88 63.724 87.172 61.517002 87.172C 56.276 87.172 56.276 91.586 56.276 95.724L56.276 95.724L56.276 114.483L46.069 114.483L46.069 80L56.276 80L56.276 83.31L56.552002 83.31zM82.481995 67.862L92.413994 67.862L92.413994 75.862L82.482994 75.862L82.482994 67.862zM82.481995 80L92.413994 80L92.413994 114.759L82.482994 114.759L82.482994 80zM95.448 80L106.207 80C 110.345 95.448 111.172 98.483 112.276 105.103C 113.656 97.379 113.931 96.551994 115.862 88.551994L115.862 88.551994L118.07 80L128.553 80L117.243 114.483L106.482994 114.483L95.449 80zM163.034 105.931C 161.931 107.586 160.552 109.517 158.897 111.172C 155.862 113.931 151.448 116.138 145.931 116.138C 135.724 116.138 128.551 109.518 128.551 98.207C 128.551 89.931 132.69 79.172 146.207 79.172C 148.137 79.172 154.207 79.448 158.621 84.138C 163.034 89.103 163.311 95.724 163.586 99.586L163.586 99.586L138.76 99.586C 138.76 104 141.24199 108.138 146.76 108.138C 152.277 108.138 154.208 104.552 155.58699 102.069L155.58699 102.069L163.03499 105.931zM152.828 92.966C 152.552 91.586006 152.276 89.656006 150.897 88C 149.517 86.62 147.587 86.069 145.931 86.069C 143.448 86.069 141.793 87.172 140.69 88.276C 139.31 89.931 139.034 91.31 138.759 92.966L138.759 92.966L152.828 92.966zM177.379 83.586006C 179.586 81.656006 182.069 80.27601 187.31 79.72401L187.31 79.72401L187.31 88.828L184 89.379005C 179.034 90.20701 177.655 91.034004 177.655 95.449005L177.655 95.449005L177.655 115.034004L167.448 115.034004L167.448 80L177.379 80L177.379 83.586zM193.655 102.896C 196.414 105.656006 200 107.586006 203.586 107.586006C 206.069 107.586006 209.656 106.759 209.656 104.27601C 209.656 103.17201 208.828 102.62101 208.276 102.34501C 206.621 101.517006 204.414 101.24101 202.483 100.96501C 200.828 100.69001 199.448 100.41401 197.793 99.862015C 195.586 99.31001 193.655 98.48202 192 96.82802C 190.345 95.17202 189.517 92.96602 189.517 90.207016C 189.517 84.41402 194.483 78.62102 204.137 78.62102C 212.414 78.62102 217.103 82.207016 219.58699 83.862015L219.58699 83.862015L213.241 89.655014C 209.931 87.17201 206.897 86.34502 204.69 86.34502C 200.828 86.34502 199.724 88.000015 199.724 88.82802C 199.724 90.75802 201.931 91.31002 205.241 91.862015C 212.138 93.24201 220.138 94.89702 220.138 103.17201C 220.138 111.44801 211.862 115.31001 203.862 115.31001C 194.207 115.31001 189.242 110.62001 187.034 108.69001L187.034 108.69001L193.655 102.89701zM223.448 67.862L233.379 67.862L233.379 75.862L223.449 75.862L223.449 67.862zM223.448 80L233.379 80L233.379 114.759L223.449 114.759L223.449 80zM242.207 70.069L252.414 70.069L252.414 80.828L259.034 80.828L259.034 87.172005L252.414 87.172005L252.414 102.621C 252.414 104.828 252.414 106.483 255.172 106.483L255.172 106.483L258.759 106.483L258.759 114.483C 256.552 114.759 255.172 115.034004 253.517 115.034004C 249.931 115.034004 246.069 114.759 243.862 111.72401C 242.482 109.79401 242.482 107.310005 242.482 104.00001L242.482 104.00001L242.482 87.448L237.24199 87.448L237.24199 81.103L242.20699 81.103L242.20699 70.07zM294.345 80L282.207 117.241C 281.379 119.448 280.552 121.655 278.897 123.586C 276.414 126.069 274.207 126.345 271.448 126.345L271.448 126.345L264 126.345L264 118.345L267.586 118.345C 269.241 118.345 271.724 118.345 271.724 115.862C 271.724 115.034 271.448 114.207 271.172 113.379L271.172 113.379L260.966 80L271.724 80L277.517 104.828L283.31 80L294.345 80z" stroke="none" fill="#000000" fill-rule="nonzero" />
			</g>
		</g>
        <path d="M335.724 138.207C 330.759 132.966 331.034 127.448 331.034 127.448L331.034 127.448L331.034 1.103L283.31 1.103L283.31 102.07C 282.759 111.725 273.38 113.932 268.138 113.932C 260.69 113.656 256.552 109.518 256.552 102.346L256.552 102.346L256.552 1.103L209.93 1.103L177.10199 1.103C 151.72299 1.103 127.72299 4.966 119.44699 26.207L119.44699 26.207L114.75699 7.448C 113.65399 3.586 109.51699 1.1030002 105.65399 1.1030002L105.65399 1.1030002L22.621 1.1030002C 21.517 1.1030002 20.966 1.3790002 21.517 2.2070003C 21.517 2.2070003 23.724 4.4140005 27.862 9.103001C 33.655 15.724001 31.448 24.276001 31.448 24.276001L31.448 24.276001L1.103 146.206L45.517002 146.206L51.862003 119.448L94.621 119.448L101.241005 146.207L159.448 146.207C 183.448 146.207 202.758 143.724 212.414 128.827C 219.586 142.345 235.034 148.966 262.344 146.483C 271.724 145.655 281.104 141.241 285.241 134.069L285.241 134.069L287.172 139.862C 288.828 143.448 292.138 145.931 296.552 145.931L296.552 145.931L341.242 145.931C 342.345 146.207 342.897 145.931 342.069 145.103C 342.069 145.103 339.586 142.345 335.724 138.207zM110.621 27.31L118.621 32C 118.345 33.38 118.069 35.034 117.793 36.414L117.793 36.414L109.517 28.690002C 108.689995 27.862003 109.793 26.759003 110.620995 27.310003zM102.621 37.240997L117.517 43.310997C 117.517 44.965996 117.517 47.447998 117.793 49.378998L117.793 49.378998L101.793 38.896996C 100.965996 38.344997 101.517 36.965996 102.621 37.240997zM96.551 48.827995L118.621 53.792995C 119.172005 56.551994 120.276 59.309998 121.379005 61.516994L121.379005 61.516994L96 50.483C 95.172 49.931004 95.448 48.552002 96.552 48.828003zM58.484 92.966L73.104004 33.379L88 92.966L58.483 92.966zM180.69101 112.828C 176.55301 116.69 168.55301 118.621 160.001 117.793C 155.035 117.241 150.07 114.759 150.07 114.759L150.07 114.759L132.139 136.828C 131.311 137.655 129.932 136.828 130.48401 135.724L130.48401 135.724L142.62201 111.172C 142.89801 110.896996 142.34601 110.620995 142.07 110.896996L142.07 110.896996L120.27701 129.931C 119.449005 130.759 118.34601 129.655 118.89701 128.551L118.89701 128.551L135.725 106.20699C 136.001 105.93099 135.725 105.65499 135.449 105.93099L135.449 105.93099L110.34601 121.10299C 109.518005 121.65499 108.41501 120.275986 109.24201 119.72399L109.24201 119.72399L130.20801 100.13799C 130.48401 99.86199 130.20801 99.58599 129.932 99.58599L129.932 99.58599L102.07001 110.89599C 100.96701 111.17199 100.41501 109.79299 101.242004 109.24099L101.242004 109.24099L125.79401 93.24099C 126.07001 92.96599 125.79401 92.68999 125.518005 92.68999L125.518005 92.68999L96.55301 99.58598C 95.44901 99.861984 95.17301 98.48299 96.00101 97.930984L96.00101 97.930984L123.311005 86.068985C 123.587006 86.068985 123.587006 85.51698 123.311005 85.51698L123.311005 85.51698L92.967 87.44798C 91.86301 87.44798 91.587006 86.068985 92.691 85.792984L92.691 85.792984L121.932 78.344986C 122.208 78.344986 122.208 77.792984 121.932 77.792984L121.932 77.792984L91.587 75.03398C 90.484 75.03398 90.484 73.37898 91.587 73.37898L91.587 73.37898L121.932 70.62098C 122.208 70.62098 122.208 70.34498 121.932 70.06898L121.932 70.06898L92.69 62.621C 91.586006 62.344997 91.862 60.966 92.966 60.966L92.966 60.966L121.931 62.621C 129.379 76.138 145.103 81.655 158.897 86.621C 172.414 91.31 184 95.172 184 105.655C 184 108.414 182.897 110.896996 180.69 112.827995zM222.34601 129.931L215.449 123.862C 215.449 123.862 216.55301 121.379 217.104 119.724L217.104 119.724L223.725 128.552C 224.27701 129.379 223.173 130.482 222.345 129.931zM232.276 121.103L218.48401 112.827995C 218.48401 112.827995 219.035 108.689995 219.035 106.482994L219.035 106.482994L233.38 119.72399C 234.20801 120.551994 233.104 121.65499 232.27701 121.10399zM240.276 110.896996L219.311 102.34499C 219.311 102.34499 219.311 97.37899 218.76001 94.620995L218.76001 94.620995L241.104 109.241C 241.932 109.793 241.38 111.172 240.27701 110.896996zM251.311 74.482994L220.96701 77.241C 220.69101 77.241 220.69101 77.517 220.96701 77.793L220.96701 77.793L250.20702 85.241C 251.31102 85.517 251.03502 86.896996 249.93202 86.896996L249.93202 86.896996L219.58702 84.965996C 219.31102 84.965996 219.31102 85.241 219.58702 85.517L219.58702 85.517L246.89702 97.379C 248.00102 97.931 247.44902 99.31 246.34602 99.034L246.34602 99.034L218.48402 93.241C 218.48402 93.241 217.38002 80.827995 202.76003 70.620995C 195.31102 65.379 185.93202 61.792995 177.93202 58.758995C 171.58702 56.275993 165.79402 54.068996 161.65602 51.585995C 156.96602 48.551994 154.76003 45.240993 154.76003 41.378994C 154.76003 38.620995 155.58702 36.137993 157.51802 34.206993C 160.82802 30.896994 166.62202 29.516993 174.62202 29.516993C 183.17302 29.516993 192.27702 33.378994 192.27702 33.378994L192.27702 33.378994L210.48402 10.758993C 211.31102 9.930993 212.69102 10.758993 212.13902 11.861993L212.13902 11.861993L199.724 36.69C 199.724 36.966 200 37.240997 200 36.966L200 36.966L222.069 17.931C 222.897 17.103 224 18.206999 223.449 19.310999L223.449 19.310999L206.345 41.931C 206.069 42.207 206.345 42.482998 206.621 42.207L206.621 42.207L232 26.759C 232.828 26.207 233.931 27.586 233.103 28.138L233.103 28.138L212.138 47.724C 211.862 48 212.138 48.275997 212.414 48L212.414 48L240.276 36.69C 241.379 36.413998 241.931 37.793 241.103 38.344997L241.103 38.344997L216.552 54.344997C 216.276 54.621 216.552 54.896996 216.828 54.896996L216.828 54.896996L246.345 48.275997C 247.448 47.999996 247.725 49.378998 246.897 49.930996L246.897 49.930996L219.587 61.792995C 219.31001 61.792995 219.31001 62.344994 219.587 62.344994L219.587 62.344994L249.931 60.413994C 251.034 60.413994 251.311 61.793995 250.207 62.068993L250.207 62.068993L220.966 69.51699C 220.69 69.51699 220.69 70.06899 220.966 70.06899L220.966 70.06899L251.31 72.827995C 252.414 72.827995 252.414 74.482994 251.31 74.482994z" stroke="none" fill="#000000" fill-rule="nonzero" />
	</g>
</g>
</svg>